<svg width="125" height="125" viewBox="0 0 125 125" fill="none" xmlns="http://www.w3.org/2000/svg">
<path d="M56.6302 30.6427C50.1208 26.5108 41.5605 31.1153 41.5605 38.742V74.0842C41.5605 81.7107 50.1208 86.3153 56.6302 82.1832L84.4624 64.5122C90.4368 60.721 90.4368 52.0942 84.4624 48.3029L56.6302 30.6319V30.6427Z" fill="black"/>
<path d="M119.29 67.9036C114.208 94.2781 90.7222 114.224 62.4889 114.224C34.2553 114.224 10.7702 94.2781 5.6987 67.9036C1.47425 69.3102 -1.10053 73.9038 0.459946 78.3654C9.35467 103.707 33.765 121.917 62.5001 121.917C91.2351 121.917 115.645 103.718 124.54 78.3654C126.101 73.9146 123.526 69.321 119.301 67.9036H119.29Z" fill="black"/>
<path d="M32.683 87.8274C31.6575 85.6626 31.0779 83.212 31.0779 80.5636V74.3435C31.0779 70.5412 27.9569 67.4641 24.1003 67.4641H20.7119C22.6959 75.3544 26.9204 82.3768 32.683 87.8274Z" fill="black"/>
<path d="M107.843 67.4641C103.117 87.8605 84.6141 103.081 62.4999 103.081C40.3857 103.081 21.8829 87.8605 17.1569 67.4641H10.001C14.8385 91.6957 36.5068 109.982 62.4999 109.982C88.493 109.982 110.161 91.6957 114.999 67.4641H107.843Z" fill="black"/>
<path d="M104.276 67.4968C102.214 67.5957 100.208 68.2003 98.4693 69.2992L57.9748 95.0145C55.3222 96.6959 52.4798 97.564 49.6709 97.7399C53.7283 98.9817 58.0306 99.6631 62.5003 99.6631C82.6861 99.6631 99.6172 85.9701 104.276 67.4968Z" fill="black"/>
<path d="M116.203 52.2107C113.661 25.1657 90.5884 4 62.4887 4C34.389 4 11.3274 25.1767 8.78606 52.2107C8.56313 54.6064 10.2797 56.8372 12.7096 57.035C15.1394 57.233 17.168 55.4855 17.3687 53.1777C19.4196 30.3856 38.8363 12.5168 62.4887 12.5168C86.1411 12.5168 105.558 30.3856 107.609 53.1777C107.821 55.4855 109.883 57.233 112.268 57.035C114.653 56.8372 116.414 54.6064 116.191 52.2107H116.203Z" fill="black"/>
</svg>
