<svg width="168" height="50" viewBox="0 0 168 50" fill="none" xmlns="http://www.w3.org/2000/svg">
<style>
#logo-blink {
	animation: logo-blink .7s linear infinite;
}
#logo-blink2 {
	animation: logo-blink .7s linear 300ms infinite;
}
@keyframes logo-blink{
	0%{ opacity: 1;}
	30%{ opacity: 1;}
	50%{ opacity: 0;}
	80%{ opacity: 0;}
	100%{ opacity: 1;}
}
</style>
<path d="M49.2 26.6001C47.1 37.6001 37.5 45.9001 25.9 45.9001C14.3 45.9001 4.59998 37.6001 2.49998 26.6001C0.799976 27.2001 -0.300024 29.1001 0.299976 31.0001C3.99998 41.6001 14 49.1001 25.8 49.1001C37.6 49.1001 47.6 41.5001 51.3 31.0001C51.9 29.1001 50.9 27.2001 49.1 26.6001H49.2Z" fill="#00E161"/>
<path d="M13.6001 34.8999C13.2001 33.9999 12.9001 32.9999 12.9001 31.8999V29.2999C12.9001 27.6999 11.6001 26.3999 10.0001 26.3999H8.6001C9.4001 29.6999 11.2001 32.5999 13.5001 34.8999H13.6001Z" fill="#7FFBA2"/>
<path d="M44.4999 26.3999C42.5999 34.8999 34.9999 41.1999 25.8999 41.1999C16.7999 41.1999 9.1999 34.8999 7.2999 26.3999H4.3999C6.3999 36.4999 15.2999 44.0999 25.9999 44.0999C36.6999 44.0999 45.5999 36.4999 47.5999 26.3999H44.4999Z" fill="#36FA77"/>
<path d="M43.0001 26.5C42.2001 26.5 41.3001 26.8 40.6001 27.3L24.0001 38C22.9001 38.7 21.7001 39.1 20.6001 39.1C22.3001 39.6 24.0001 39.9 25.9001 39.9C34.2001 39.9 41.1001 34.2 43.1001 26.5H43.0001Z" fill="#7FFBA2"/>
<path d="M47.9001 20.1C46.9001 8.8 37.4 0 25.9 0C14.4 0 4.90005 8.8 3.80005 20.1C3.80005 21.1 4.40005 22 5.40005 22.1C6.40005 22.1 7.20005 21.5 7.30005 20.5C8.20005 11 16.2 3.5 25.9 3.5C35.6 3.5 43.6001 10.9 44.4001 20.4C44.4001 21.4 45.3 22.1 46.3 22C47.3 22 48.0001 21 47.9001 20V20.1Z" fill="white"/>
<path d="M64.7 26.5999V5.8999H73.1C74.6 5.8999 75.9 6.1999 77 6.6999C78.1 7.1999 78.9 7.9999 79.5 8.8999C80.1 9.8999 80.4 10.9999 80.4 12.1999C80.4 13.3999 80.1 14.7999 79.4 15.7999C78.7 16.7999 77.7 17.5999 76.5 17.9999L81 26.5999H76.2L72.1 18.5999H69V26.5999H64.7ZM73 9.5999H69V15.0999H73C74 15.0999 74.7 14.7999 75.2 14.2999C75.7 13.7999 76 13.0999 76 12.3999C76 11.6999 75.7 10.9999 75.2 10.3999C74.7 9.8999 73.9 9.5999 73 9.5999Z" fill="white"/>
<path d="M90.5 26.9C88.8 26.9 87.4 26.5 86.3 25.8C85.1 25.1 84.3 24.1 83.7 23C83.1 21.8 82.8 20.6 82.8 19.2C82.8 17.8 83.1 16.6 83.7 15.4C84.3 14.2 85.2 13.3 86.3 12.6C87.5 11.9 88.9 11.5 90.5 11.5C92.1 11.5 93.6 11.9 94.7 12.6C95.9 13.3 96.7 14.3 97.3 15.4C97.9 16.6 98.2 17.8 98.2 19.2C98.2 20.6 97.9 21.8 97.3 23C96.7 24.2 95.8 25.1 94.7 25.8C93.5 26.5 92.1 26.9 90.5 26.9ZM90.5 23.4C91.2 23.4 91.9 23.2 92.4 22.8C92.9 22.4 93.3 21.9 93.6 21.2C93.9 20.6 94 19.9 94 19.1C94 18.3 94 17.6 93.6 17C93.2 16.4 92.9 15.9 92.4 15.5C91.9 15.1 91.3 14.9 90.5 14.9C89.7 14.9 89.1 15.1 88.6 15.5C88.1 15.9 87.7 16.4 87.4 17C87.1 17.6 87 18.3 87 19.1C87 19.9 87 20.5 87.4 21.2C87.7 21.8 88.1 22.4 88.6 22.8C89.1 23.2 89.8 23.4 90.5 23.4Z" fill="white"/>
<path d="M101.5 26.5999V5.8999H110C111.7 5.8999 113.1 6.1999 114.2 6.8999C115.3 7.5999 116.2 8.3999 116.7 9.4999C117.3 10.5999 117.6 11.6999 117.6 12.7999C117.6 13.8999 117.3 15.0999 116.7 16.0999C116.1 17.1999 115.3 17.9999 114.2 18.6999C113.1 19.3999 111.7 19.6999 110 19.6999H105.8V26.5999H101.5ZM110 9.6999H105.8V15.9999H110C110.7 15.9999 111.3 15.7999 111.8 15.4999C112.3 15.1999 112.7 14.7999 112.9 14.2999C113.2 13.7999 113.3 13.2999 113.3 12.7999C113.3 12.2999 113.3 11.7999 112.9 11.2999C112.5 10.7999 112.3 10.3999 111.8 10.0999C111.3 9.7999 110.7 9.6999 110 9.6999Z" fill="white"/>
<path d="M120.5 26.5999V5.3999H124.8V13.9999C125 13.6999 125.2 13.3999 125.5 12.9999C125.8 12.5999 126.3 12.2999 126.8 11.9999C127.3 11.6999 128.1 11.5999 128.9 11.5999C129.7 11.5999 131 11.8999 131.7 12.3999C132.4 12.8999 133 13.5999 133.3 14.3999C133.6 15.1999 133.8 16.0999 133.8 16.9999V26.6999H129.5V17.7999C129.5 17.0999 129.3 16.4999 128.9 15.8999C128.5 15.3999 127.9 15.0999 127.1 15.0999C126.3 15.0999 126 15.2999 125.6 15.4999C125.2 15.7999 125 16.1999 124.8 16.5999C124.6 17.0999 124.5 17.5999 124.5 18.0999V26.5999H120.2H120.4H120.5Z" fill="white"/>
<path d="M139.8 9.8C139.1 9.8 138.4 9.6 138 9.1C137.5 8.6 137.3 8.1 137.3 7.4C137.3 6.7 137.5 6.1 138 5.7C138.5 5.3 139.1 5 139.8 5C140.5 5 141.1 5.2 141.6 5.7C142.1 6.2 142.3 6.8 142.3 7.4C142.3 8 142.1 8.6 141.6 9.1C141.1 9.6 140.5 9.8 139.8 9.8ZM137.6 26.6V11.8H141.9V26.6H137.6Z" fill="white"/>
<path d="M145.5 26.6V11.8H149.8V13.8H149.9C150.2 13.3 150.7 12.7 151.3 12.2C151.9 11.7 152.8 11.5 153.9 11.5C155 11.5 155.9 11.8 156.6 12.3C157.3 12.8 157.8 13.5 158.1 14.2C158.3 13.8 158.7 13.3 159.1 12.9C159.5 12.5 160 12.1 160.6 11.9C161.2 11.6 161.9 11.5 162.7 11.5C163.5 11.5 164.6 11.7 165.3 12.2C166 12.7 166.5 13.3 166.8 14C167.1 14.8 167.3 15.6 167.3 16.4V26.6H163V17.5C163 16.8 162.8 16.2 162.5 15.7C162.1 15.2 161.6 15 160.9 15C160.2 15 159.9 15.1 159.5 15.4C159.2 15.7 158.9 16 158.7 16.5C158.5 16.9 158.5 17.4 158.5 17.9V26.7H154.2V17.6C154.2 16.9 154 16.3 153.7 15.8C153.3 15.3 152.8 15.1 152.1 15.1C151.4 15.1 151.1 15.2 150.7 15.5C150.4 15.8 150.1 16.1 149.9 16.6C149.7 17 149.7 17.5 149.7 18V26.8H145.4V26.6H145.5Z" fill="white"/>
<g opacity="0.7">
<g opacity="0.8">
<path d="M64.7 44.6V34.5H68.3C69.1 34.5 69.7 34.7 70.2 35C70.7 35.3 71.1 35.7 71.4 36.2C71.7 36.7 71.8 37.2 71.8 37.8C71.8 38.4 71.8 38.9 71.4 39.4C71 39.9 70.8 40.3 70.2 40.6C69.6 40.9 69 41.1 68.3 41.1H66V44.6H64.7ZM68.3 35.7H66V40H68.3C68.8 40 69.2 40 69.5 39.7C69.8 39.5 70.1 39.2 70.2 38.9C70.3 38.6 70.4 38.2 70.4 37.9C70.4 37.6 70.4 37.2 70.2 36.9C70 36.6 69.8 36.3 69.5 36.1C69.2 35.9 68.8 35.8 68.3 35.8V35.7Z" fill="white"/>
<path d="M73.4999 44.6002V34.2002H74.7999V38.4002C74.7999 38.4002 74.9999 38.1002 75.0999 37.9002C75.2999 37.7002 75.4999 37.5002 75.6999 37.4002C75.8999 37.3002 76.2999 37.2002 76.7999 37.2002C77.2999 37.2002 77.7999 37.2002 78.1999 37.6002C78.5999 38.0002 78.8999 38.2002 79.0999 38.6002C79.2999 39.0002 79.3999 39.5002 79.3999 40.0002V44.7002H78.0999V40.1002C78.0999 39.6002 78.0999 39.2002 77.6999 38.9002C77.2999 38.6002 76.9999 38.4002 76.4999 38.4002C75.9999 38.4002 75.7999 38.4002 75.4999 38.7002C75.1999 39.0002 75.0999 39.2002 74.8999 39.5002C74.8999 39.8002 74.6999 40.2002 74.6999 40.6002V44.7002H73.3999L73.4999 44.6002Z" fill="white"/>
<path d="M82.1999 36.0001C81.9999 36.0001 81.7999 36.0001 81.5999 35.8001C81.3999 35.6001 81.3999 35.4001 81.3999 35.2001C81.3999 35.0001 81.3999 34.8001 81.5999 34.6001C81.7999 34.4001 81.9999 34.4001 82.1999 34.4001C82.3999 34.4001 82.5999 34.4001 82.7999 34.6001C82.9999 34.8001 82.9999 35.0001 82.9999 35.2001C82.9999 35.4001 82.9999 35.6001 82.7999 35.8001C82.5999 36.0001 82.3999 36.0001 82.1999 36.0001ZM81.4999 44.6001V37.4001H82.7999V44.6001H81.4999Z" fill="white"/>
<path d="M84.9 44.6V37.4001H86.2V38.5C86.2 38.5 86.4 38.2 86.5 38C86.7 37.8 86.9 37.6 87.1 37.5C87.4 37.5 87.7 37.3 88.1 37.3C88.5 37.3 89.1 37.3001 89.5 37.7001C89.9 38.0001 90.1 38.3001 90.3 38.7001C90.5 38.3001 90.8 38.0001 91.2 37.7001C91.6 37.4001 92 37.3 92.6 37.3C93.2 37.3 94 37.6 94.4 38.1C94.8 38.6 95 39.3001 95 40.2001V44.7001H93.7V40.2001C93.7 39.7001 93.7 39.2001 93.3 38.9001C92.9 38.6001 92.7 38.4001 92.2 38.4001C91.7 38.4001 91.4 38.4001 91.2 38.7001C90.9 38.9001 90.8 39.2 90.7 39.5C90.6 39.8 90.5 40.2 90.5 40.5V44.6H89.2V40.1C89.2 39.6 89.2 39.1 88.8 38.8C88.4 38.5 88.2 38.3 87.7 38.3C87.2 38.3 86.9 38.3 86.7 38.6C86.5 38.9 86.3 39.1 86.2 39.5C86.2 39.8 86 40.2 86 40.5V44.6H84.7H84.9Z" fill="white"/>
<path d="M100.4 44.6002V34.2002H101.7V38.4002C101.7 38.4002 101.9 38.1002 102 37.9002C102.1 37.7002 102.4 37.5002 102.6 37.4002C102.8 37.3002 103.2 37.2002 103.7 37.2002C104.2 37.2002 104.7 37.2002 105.1 37.6002C105.5 37.8002 105.8 38.2002 106 38.6002C106.2 39.0002 106.3 39.5002 106.3 40.0002V44.7002H105V40.1002C105 39.6002 105 39.2002 104.6 38.9002C104.2 38.6002 103.9 38.4002 103.4 38.4002C102.9 38.4002 102.7 38.4002 102.4 38.7002C102.1 39.0002 102 39.2002 101.8 39.5002C101.8 39.8002 101.6 40.2002 101.6 40.6002V44.7002H100.3L100.4 44.6002Z" fill="white"/>
<path d="M111.4 37.3C111.9 37.3 112.2 37.3 112.5 37.5C112.8 37.5 113.1 37.8 113.3 38C113.5 38.2 113.6 38.4 113.7 38.6V37.5H115V44.7001H113.7V43.6C113.7 43.8 113.5 44.0001 113.3 44.2001C113.1 44.4001 112.9 44.6001 112.5 44.7001C112.2 44.7001 111.8 44.9001 111.4 44.9001C111 44.9001 110.4 44.9 110 44.6C109.6 44.3 109.2 44.1001 109 43.7001C108.7 43.3001 108.5 42.9 108.4 42.5C108.3 42.1 108.2 41.6 108.2 41.1C108.2 40.6 108.2 40.2001 108.4 39.7001C108.6 39.2001 108.7 38.9 109 38.5C109.3 38.1 109.6 37.9 110 37.6C110.4 37.4 110.9 37.3 111.4 37.3ZM111.6 38.4001C111.1 38.4001 110.7 38.4 110.4 38.8C110.1 39.2 109.8 39.4 109.7 39.8C109.5 40.2 109.5 40.6 109.5 41.1C109.5 41.6 109.5 42.0001 109.7 42.4001C109.9 42.8001 110.1 43.1001 110.4 43.4001C110.7 43.7001 111.1 43.8 111.6 43.8C112.1 43.8 112.5 43.8001 112.8 43.4001C113.1 43.0001 113.4 42.8001 113.5 42.4001C113.6 42.0001 113.7 41.6 113.7 41.1C113.7 40.6 113.7 40.2 113.5 39.8C113.3 39.4 113.1 39.1 112.8 38.8C112.5 38.5 112.1 38.4001 111.6 38.4001Z" fill="white"/>
<path d="M117.1 47.3001H116.3V46.2001H117C117.5 46.2001 118 46.2001 118.3 45.9001C118.6 45.6001 118.9 45.3001 119.2 44.8001L116.4 37.4001H117.8L119.9 43.1001L122 37.4001H123.4L120.6 44.7001C120.2 45.6001 119.8 46.3001 119.2 46.7001C118.6 47.1001 117.9 47.3001 117.1 47.3001Z" fill="white"/>
<path d="M131.3 44.8002C130.7 44.8002 130.2 44.8002 129.7 44.5002C129.2 44.2002 128.9 44.0002 128.6 43.6002C128.3 43.2002 128.1 42.8002 127.9 42.4002C127.7 42.0002 127.7 41.5002 127.7 41.0002C127.7 40.5002 127.7 40.1002 127.9 39.6002C127.9 39.2002 128.3 38.8002 128.6 38.4002C128.9 38.0002 129.3 37.7002 129.7 37.5002C130.1 37.3002 130.7 37.2002 131.3 37.2002C131.9 37.2002 132.4 37.2002 132.7 37.5002C133 37.8002 133.4 37.9002 133.6 38.1002C133.8 38.4002 134 38.6002 134.1 38.9002C134.2 39.2002 134.3 39.5002 134.4 39.8002H133.1C133.1 39.5002 132.9 39.3002 132.8 39.1002C132.7 38.9002 132.5 38.7002 132.2 38.6002C131.9 38.5002 131.6 38.4002 131.2 38.4002C130.8 38.4002 130.3 38.4002 129.9 38.8002C129.5 39.2002 129.3 39.4002 129.1 39.8002C128.9 40.2002 128.8 40.6002 128.8 41.1002C128.8 41.6002 128.8 42.0002 129.1 42.4002C129.3 42.8002 129.5 43.1002 129.9 43.4002C130.3 43.7002 130.7 43.8002 131.2 43.8002C131.7 43.8002 132 43.8002 132.2 43.6002C132.4 43.4002 132.6 43.3002 132.8 43.1002C133 42.9002 133 42.7002 133.1 42.4002H134.4C134.4 42.7002 134.2 43.0002 134.1 43.3002C134 43.6002 133.8 43.8002 133.6 44.1002C133.4 44.4002 133.1 44.6002 132.7 44.7002C132.3 44.8002 131.8 45.0002 131.3 45.0002V44.8002Z" fill="white"/>
<path d="M139.5 37.3C140 37.3 140.3 37.3 140.6 37.5C140.9 37.5 141.2 37.8 141.4 38C141.6 38.2 141.7 38.4 141.8 38.6V37.5H143.1V44.7001H141.8V43.6C141.7 43.8 141.6 44.0001 141.4 44.2001C141.2 44.4001 141 44.6001 140.6 44.7001C140.3 44.7001 139.9 44.9001 139.5 44.9001C139.1 44.9001 138.5 44.9 138.1 44.6C137.7 44.3 137.3 44.1001 137.1 43.7001C136.8 43.3001 136.6 42.9 136.5 42.5C136.4 42.1 136.3 41.6 136.3 41.1C136.3 40.6 136.3 40.2001 136.5 39.7001C136.7 39.2001 136.8 38.9 137.1 38.5C137.4 38.1 137.7 37.9 138.1 37.6C138.5 37.3 139 37.3 139.5 37.3ZM139.7 38.4001C139.2 38.4001 138.8 38.4 138.5 38.8C138.2 39.2 137.9 39.4 137.8 39.8C137.6 40.2 137.6 40.6 137.6 41.1C137.6 41.6 137.6 42.0001 137.8 42.4001C138 42.8001 138.2 43.1001 138.5 43.4001C138.8 43.7001 139.2 43.8 139.7 43.8C140.2 43.8 140.6 43.8001 140.9 43.4001C141.2 43.0001 141.5 42.8001 141.6 42.4001C141.7 42.0001 141.8 41.6 141.8 41.1C141.8 40.6 141.8 40.2 141.6 39.8C141.4 39.4 141.2 39.1 140.9 38.8C140.6 38.5 140.2 38.4001 139.7 38.4001ZM139.4 36.4001V35.7001C139.4 35.7001 139.5 35.5 139.6 35.5H139.8C140.2 35.2 140.4 35.0001 140.4 34.7001C140.4 34.4001 140.4 34.5001 140.3 34.4001C140.2 34.3001 140.1 34.2001 139.8 34.2001C139.5 34.2001 139.5 34.2001 139.4 34.2001C139.4 34.2001 139.3 34.4 139.2 34.5V34.7001H138.3C138.3 34.5001 138.3 34.3 138.5 34C138.7 33.7 138.8 33.6 139 33.5C139.2 33.4 139.5 33.3 139.9 33.3C140.3 33.3 140.8 33.3001 141 33.7001C141.3 34.0001 141.4 34.2 141.4 34.6C141.4 35 141.4 35.1 141.1 35.3C140.9 35.5 140.6 35.7001 140.3 35.9001V36.3H139.4V36.4001Z" fill="white"/>
<path d="M148.4 44.6V37.4001H149.7V38.3C149.9 38 150.1 37.8 150.4 37.6C150.7 37.4 151.1 37.3 151.7 37.3H152.3V38.5H151.6C151 38.5 150.5 38.7 150.1 39C149.8 39.4 149.6 39.9 149.6 40.8V44.6H148.3H148.4Z" fill="white"/>
<path d="M156.7 44.8001C155.9 44.8001 155.3 44.6001 154.7 44.3001C154.2 43.9001 153.8 43.5001 153.5 42.9001C153.2 42.3001 153.1 41.7001 153.1 41.1001C153.1 40.5001 153.2 39.8001 153.5 39.3001C153.8 38.8001 154.2 38.3001 154.7 37.9001C155.2 37.5001 155.9 37.4001 156.7 37.4001C157.5 37.4001 158.1 37.6001 158.7 37.9001C159.2 38.3001 159.6 38.7001 159.9 39.3001C160.2 39.9001 160.3 40.5001 160.3 41.1001C160.3 41.7001 160.2 42.3001 159.9 42.9001C159.6 43.5001 159.2 43.9001 158.7 44.3001C158.2 44.7001 157.5 44.8001 156.7 44.8001ZM156.7 43.6001C157.2 43.6001 157.6 43.6001 157.9 43.2001C158.2 42.9001 158.5 42.6001 158.7 42.2001C158.9 41.8001 159 41.4001 159 40.9001C159 40.4001 159 40.0001 158.7 39.6001C158.5 39.2001 158.3 38.9001 157.9 38.6001C157.6 38.3001 157.2 38.2001 156.7 38.2001C156.2 38.2001 155.8 38.2001 155.5 38.6001C155.2 38.8001 154.9 39.2001 154.7 39.6001C154.5 40.0001 154.4 40.4001 154.4 40.9001C154.4 41.4001 154.4 41.8001 154.7 42.2001C154.9 42.6001 155.1 42.9001 155.5 43.2001C155.9 43.5001 156.2 43.6001 156.7 43.6001ZM154.4 36.3001L156.1 34.3001H157.2L158.9 36.3001H157.7L156.7 35.0001L155.7 36.3001H154.4ZM158.3 34.7001V34.0001C158.3 34.0001 158.4 33.8001 158.5 33.8001H158.7C159.1 33.5001 159.3 33.3001 159.3 33.0001C159.3 32.7001 159.3 32.8001 159.2 32.7001C159.1 32.6001 159 32.5001 158.7 32.5001C158.4 32.5001 158.4 32.5001 158.3 32.5001C158.3 32.5001 158.2 32.7001 158.1 32.8001C158 32.9001 158.1 33.0001 158.1 33.0001H157.2C157.2 32.8001 157.2 32.6001 157.4 32.3001C157.5 32.1001 157.7 31.9001 157.9 31.8001C158.1 31.7001 158.4 31.6001 158.8 31.6001C159.2 31.6001 159.7 31.7001 159.9 32.0001C160.2 32.3001 160.3 32.5001 160.3 32.9001C160.3 33.3001 160.3 33.4001 160 33.6001C159.8 33.8001 159.5 34.0001 159.2 34.2001V34.6001H158.3V34.7001Z" fill="white"/>
</g>
</g>
<mask id="mask0_5476_9126" style="mask-type:luminance" maskUnits="userSpaceOnUse" x="17" y="10" width="20" height="24">
<path d="M23.5 11.1C20.8 9.40004 17.3 11.3 17.3 14.5V29.2C17.3 32.4 20.8 34.3 23.5 32.6L34.9001 25.2C37.4001 23.6 37.4001 20 34.9001 18.4L23.5 11V11.1Z" fill="white"/>
</mask>
<g mask="url(#mask0_5476_9126)">
<path d="M29 26.7L19.8 21.9L29 17.2V26.7Z" fill="#7FFBA2"/>
<path d="M29 26.6999L16.7 36.2999L19.7999 21.8999L29 26.6999Z" fill="#36FA77"/>
<path d="M29 17.2L19.7999 21.9L16.7 7.5L29 17.2Z" fill="#36FA77"/>
<path d="M29 17.2L44.4 21.9L29 26.7V17.2Z" fill="#9FFFB6"/>
<path d="M19.7999 21.9L16.7 36.3V7.5L19.7999 21.9Z" fill="#00E161"/>
<path d="M16.7 36.2999L44.4 21.8999L29 26.6999L16.7 36.2999Z" fill="#00E161"/>
<path d="M29 17.2L44.4 21.9L16.7 7.5L29 17.2Z" fill="#00E161"/>
</g>
<path id="logo-blink" d="M30.0999 16.9001L34.4999 17.9001L30.0999 18.8001L29.1999 23.2001L28.2999 18.8001L23.8999 17.9001L28.2999 16.9001L29.1999 12.6001L30.0999 16.9001Z" fill="white"/>
<path id="logo-blink2" d="M20.2 27.3L24.6 28.3L20.2 29.2L19.3 33.6L18.4 29.2L14 28.3L18.4 27.3L19.3 23L20.2 27.3Z" fill="white"/>
</svg>
