<svg xmlns:xlink="http://www.w3.org/1999/xlink" id="Check circle" width="24" height="24" viewBox="0 0 24 24" fill="none" xmlns="http://www.w3.org/2000/svg">
<path fill-rule="evenodd" clip-rule="evenodd" d="M12.7425 15.4063C12.6155 15.6453 12.3685 15.7973 12.0985 15.8033H12.0805C11.8165 15.8033 11.5715 15.6653 11.4355 15.4373C10.5135 13.8883 9.3295 12.4983 7.9155 11.3043C7.5995 11.0373 7.5595 10.5643 7.8265 10.2483C8.0945 9.93128 8.5675 9.89028 8.8835 10.1583C10.0945 11.1803 11.1505 12.3363 12.0365 13.6043C13.3435 11.4113 15.6025 8.35328 18.9945 5.94828C17.2955 3.98628 14.7925 2.73828 11.9995 2.73828C6.8935 2.73828 2.7395 6.89228 2.7395 11.9993C2.7395 17.1053 6.8935 21.2603 11.9995 21.2603C17.1065 21.2603 21.2605 17.1053 21.2605 11.9993C21.2605 10.2213 20.7485 8.56428 19.8765 7.15328C15.9385 9.95128 13.6205 13.7553 12.7425 15.4063Z" fill="#B4FF75"></path>
</svg>