<svg width="64" height="64" viewBox="0 0 64 64" fill="none" xmlns="http://www.w3.org/2000/svg">
<path d="M64 32C64 14.3269 49.6731 0 32 0C14.3269 0 0 14.3269 0 32C0 49.6731 14.3269 64 32 64C49.6731 64 64 49.6731 64 32Z" fill="url(#paint0_linear_6218_13717)"/>
<path d="M62 32C62 15.4315 48.5685 2 32 2C15.4315 2 2 15.4315 2 32C2 48.5685 15.4315 62 32 62C48.5685 62 62 48.5685 62 32Z" stroke="white" stroke-opacity="0.73" stroke-width="4"/>
<path d="M26.3937 33.4001H37.8937V21.7001H26.3937V33.4001ZM46.2937 21.1001V33.7501L42.2437 37.8001L48.2937 50.0001H38.8937L34.4437 40.1001H26.3937V50.0001H17.9937V15.0001H40.1937L46.2937 21.1001Z" fill="black" fill-opacity="0.9"/>
<defs>
<linearGradient id="paint0_linear_6218_13717" x1="46.5" y1="4" x2="19" y2="60" gradientUnits="userSpaceOnUse">
<stop stop-color="#FFEFC8"/>
<stop offset="1" stop-color="#FFD875"/>
</linearGradient>
</defs>
</svg>
