<svg xmlns:xlink="http://www.w3.org/1999/xlink" id="Flash" width="24" height="25" viewBox="0 0 24 24" fill="none" xmlns="http://www.w3.org/2000/svg"><path fill-rule="evenodd" clip-rule="evenodd" d="M9.69769 3.88672L6.13756 12.5736H9.80595C10.6767 12.5736 11.3109 13.399 11.0866 14.2404L9.58249 19.8809L17.7366 10.5736H13.4341C12.5194 10.5736 11.8797 9.66901 12.1845 8.80661C12.1897 8.79175 12.1955 8.77705 12.2016 8.76255L14.2791 3.88672H9.69769ZM9.08969 20.4434C9.08975 20.4433 9.0898 20.4432 9.08985 20.4432L9.08969 20.4434ZM8.34172 3.23983C8.53734 2.7267 9.02976 2.38672 9.58008 2.38672H14.5446C15.4593 2.38672 16.099 3.29134 15.7942 4.15374C15.789 4.1686 15.7832 4.18329 15.7771 4.19779L13.6996 9.07363H18.1218C19.2609 9.07363 19.8694 10.4156 19.1187 11.2724L10.2179 21.4318C9.29406 22.4863 7.57923 21.5716 7.94045 20.217L9.57863 14.0736H5.87681C4.95547 14.0736 4.31523 13.1567 4.63254 12.2918C4.63575 12.283 4.63913 12.2743 4.64267 12.2656L8.34172 3.23983Z" fill="#FFD875"></path></svg>