<svg width="24" height="24" viewBox="0 0 24 24" fill="none" xmlns="http://www.w3.org/2000/svg">
<g clip-path="url(#clip0_353_3144)">
<path d="M21.09 12.37C20.28 16.65 16.52 19.89 12 19.89C7.48 19.89 3.72 16.65 2.91 12.37C2.23 12.6 1.82 13.34 2.07 14.07C3.49 18.18 7.4 21.14 12 21.14C16.6 21.14 20.5 18.19 21.93 14.07C22.18 13.35 21.77 12.6 21.09 12.37Z" fill="#FFD875"/>
<path d="M19.25 12.3C18.49 15.61 15.53 18.08 12 18.08C8.47 18.08 5.5 15.61 4.75 12.3H3.61C4.38 16.23 7.85 19.2 12.01 19.2C16.17 19.2 19.64 16.23 20.41 12.3H19.27H19.25Z" fill="#FFD875"/>
<path d="M20.59 9.82C20.18 5.43 16.49 2 12 2C7.51001 2 3.81001 5.44 3.41001 9.82C3.37001 10.21 3.65001 10.57 4.04001 10.6C4.43001 10.63 4.75001 10.35 4.79001 9.97C5.12001 6.27 8.22001 3.37 12.01 3.37C15.8 3.37 18.9 6.27 19.23 9.97C19.26 10.34 19.59 10.63 19.98 10.6C20.36 10.57 20.64 10.21 20.61 9.82H20.59Z" fill="white"/>
<path d="M17.12 12.3C16.85 12.3 16.6 12.44 16.44 12.65C15.5 13.86 13.89 14.67 12.05 14.67C10.21 14.67 8.59001 13.86 7.65001 12.64C7.49001 12.43 7.25001 12.3 6.99001 12.3H5.35001C6.11001 15.3 8.82001 17.52 12.06 17.52C15.3 17.52 18 15.3 18.77 12.3H17.14H17.12Z" fill="#FFD875"/>
</g>
<defs>
<clipPath id="clip0_353_3144">
<rect width="20" height="19.14" fill="white" transform="translate(2 2)"/>
</clipPath>
</defs>
</svg>
