<svg width="512" height="512" viewBox="0 0 512 512" fill="none" xmlns="http://www.w3.org/2000/svg">
<g clip-path="url(#clip0_8272_2487)">
<path d="M354.999 3.00092C348.372 -1.97004 338.97 -0.626047 334 6.0009L254.377 112.164L176.607 34.3937C170.75 28.5357 161.252 28.5357 155.394 34.3937C149.536 40.2516 149.536 49.7486 155.394 55.6065L245.393 145.606C248.216 148.429 252.035 150 255.998 150C256.352 150 256.707 149.987 257.062 149.962C261.399 149.653 265.39 147.478 267.999 144L357.998 24.0008C362.97 17.3728 361.626 7.97188 354.999 3.00092ZM142.709 423.581C135.299 419.876 126.289 422.88 122.584 430.289L92.5844 490.288C88.8794 497.698 91.8834 506.707 99.2924 510.413C101.445 511.49 103.734 512 105.988 512C111.49 512 116.788 508.961 119.416 503.705L149.416 443.705C153.122 436.296 150.119 427.286 142.709 423.581ZM420.415 490.289L390.415 430.29C386.711 422.88 377.701 419.877 370.291 423.582C362.881 427.287 359.878 436.296 363.583 443.706L393.583 503.706C396.211 508.963 401.508 512.001 407.011 512.001C409.265 512.001 411.554 511.491 413.707 510.414C421.117 506.708 424.12 497.698 420.415 490.289Z" fill="url(#paint0_linear_8272_2487)"/>
<path d="M466.998 120H45.0016C20.1888 120 0.00195312 140.187 0.00195312 165V406.998C0.00195312 431.811 20.1888 451.997 45.0016 451.997H466.998C491.811 451.997 511.998 431.811 511.998 406.998V165C511.998 140.187 491.812 120 466.998 120Z" fill="url(#paint1_linear_8272_2487)"/>
<path fill-rule="evenodd" clip-rule="evenodd" d="M290.273 270.739L250.636 310.377C249.374 311.638 247.734 312.265 246.086 312.265C244.43 312.265 242.79 311.638 241.529 310.377L221.71 290.558C219.195 288.043 219.195 283.966 221.71 281.451C224.225 278.936 228.293 278.936 230.808 281.451L246.086 296.721L281.166 261.632C283.681 259.117 287.758 259.117 290.273 261.632C292.788 264.147 292.788 268.224 290.273 270.739ZM256 204.458C211.041 204.458 174.458 241.041 174.458 286C174.458 330.968 211.041 367.542 256 367.542C300.96 367.542 337.542 330.968 337.542 286C337.542 241.041 300.96 204.458 256 204.458Z" fill="white"/>
</g>
<defs>
<linearGradient id="paint0_linear_8272_2487" x1="256.5" y1="512" x2="256.5" y2="-6.10351e-05" gradientUnits="userSpaceOnUse">
<stop stop-color="#6C92C8"/>
<stop offset="1" stop-color="white"/>
</linearGradient>
<linearGradient id="paint1_linear_8272_2487" x1="39" y1="471" x2="452" y2="136" gradientUnits="userSpaceOnUse">
<stop stop-color="#1C8CD6"/>
<stop offset="1" stop-color="#FFB260"/>
</linearGradient>
<clipPath id="clip0_8272_2487">
<rect width="512" height="512" fill="white"/>
</clipPath>
</defs>
</svg>
