<svg id="Capa_1" enable-background="new 0 0 512 512" height="512" viewBox="0 0 512 512" width="512" xmlns="http://www.w3.org/2000/svg"><g><path d="m256 22.004c-135.309 0-244.998 109.689-244.998 244.998 0 122.846 90.417 224.568 208.331 242.265l36.667-23.57 36.667 23.57c117.915-17.697 208.331-119.419 208.331-242.265 0-135.309-109.689-244.998-244.998-244.998z" fill="#02c0fc"/><path d="m233.309 146.947v-146.947c-46.286 0-83.809 37.522-83.809 83.808v115.139l106.5 13.401 106.5-13.401v-24.655z" fill="#ffc242"/><path d="m313.462 99.474v-91.917c-10.595-4.839-22.362-7.557-34.771-7.557h-45.383s-19.898 12.689-19.898 47.318v92.857c0 18.842 15.275 34.117 34.117 34.117h114.973v-53.75z" fill="#fef156"/><path d="m313.462 7.557c-7.119 6.737-14.872 18.862-14.872 39.761v55.611c0 9.728 7.886 17.613 17.613 17.613h46.297v-36.734c0-33.877-20.112-63.038-49.038-76.251z" fill="#fffbb3"/><path d="m362.5 263.572-106.5-21.625-106.5 21.625v50.326c0 58.818 47.682 106.5 106.5 106.5 8.301 0 16.379-.95 24.134-2.747l-1.884-97.704 84.25-35.217z" fill="#1d2e79"/><g><path d="m402.5 331.398c-9.665 0-17.5-7.835-17.5-17.5v-78.951c0-9.665 7.835-17.5 17.5-17.5s17.5 7.835 17.5 17.5v78.951c0 9.666-7.835 17.5-17.5 17.5z" fill="#ffc242"/></g><path d="m219.333 452.126c0-5.016 1.753-9.618 4.668-13.246-55.703-14.27-97.001-64.893-97.001-124.982v-78.951c0-9.665-7.835-17.5-17.5-17.5s-17.5 7.835-17.5 17.5v78.951c0 77.828 54.497 143.165 127.333 159.864z" fill="#ffc242"/><path d="m362.629 415.762c-6.153-7.452-17.182-8.506-24.637-2.354-14.668 12.111-31.805 20.749-50.023 25.431 2.933 3.634 4.698 8.252 4.698 13.286v21.584c24.657-5.683 47.889-17.03 67.609-33.311 7.452-6.153 8.506-17.183 2.353-24.636z" fill="#ffc242"/><path d="m136 212.348h-58.544c-10.401 0-18.911 8.51-18.911 18.911 0 10.401 8.51 18.911 18.911 18.911h58.544l15.75-18.911z" fill="#1d2e79"/><path d="m426.889 250.171h-50.889l-13.5-18.911 13.5-18.912h50.889l12.361 18.912z" fill="#2a428b"/><g><path d="m271.488 430.947h-30.977c-11.697 0-21.178 9.482-21.178 21.178v57.142c11.962 1.795 24.205 2.733 36.667 2.733s24.705-.938 36.667-2.733v-57.142c0-11.696-9.482-21.178-21.179-21.178z" fill="#2a428b"/></g><g><path d="m349.144 444.404c-5.042 0-10.044-2.168-13.505-6.359-6.153-7.453-5.1-18.483 2.353-24.637 29.874-24.665 47.008-60.934 47.008-99.51 0-9.665 7.835-17.5 17.5-17.5s17.5 7.835 17.5 17.5c0 49.055-21.769 95.162-59.725 126.5-3.261 2.693-7.209 4.006-11.131 4.006z" fill="#fef156"/></g><path d="m199.214 33.122c-7.808 0-14.197 6.388-14.197 14.197v5.277c0 7.808 6.389 14.196 14.197 14.196s14.197-6.388 14.197-14.196v-5.277c-.001-7.809-6.389-14.197-14.197-14.197z" fill="#fea53d"/><path d="m312.786 33.122c-7.808 0-14.197 6.388-14.197 14.197v5.277c0 7.808 6.388 14.196 14.197 14.196s14.197-6.388 14.197-14.196v-5.277c0-7.809-6.389-14.197-14.197-14.197z" fill="#ffc242"/><path d="m256 33.122c-7.808 0-14.197 6.388-14.197 14.197v5.277c0 7.808 6.388 14.196 14.197 14.196s14.197-6.388 14.197-14.196v-5.277c0-7.809-6.389-14.197-14.197-14.197z" fill="#ffc242"/><path d="m199.214 140.622c-7.808 0-14.197 6.388-14.197 14.197v5.277c0 7.808 6.389 14.197 14.197 14.197s14.197-6.388 14.197-14.197v-5.277c-.001-7.809-6.389-14.197-14.197-14.197z" fill="#fea53d"/><path d="m312.786 140.622c-7.808 0-14.197 6.388-14.197 14.197v5.277c0 7.808 6.388 14.197 14.197 14.197s14.197-6.388 14.197-14.197v-5.277c0-7.809-6.389-14.197-14.197-14.197z" fill="#ffc242"/><path d="m256 140.622c-7.808 0-14.197 6.388-14.197 14.197v5.277c0 7.808 6.388 14.197 14.197 14.197s14.197-6.388 14.197-14.197v-5.277c0-7.809-6.389-14.197-14.197-14.197z" fill="#ffc242"/><path d="m199.214 86.872c-7.808 0-14.197 6.388-14.197 14.196v5.277c0 7.808 6.389 14.196 14.197 14.196s14.197-6.388 14.197-14.196v-5.277c-.001-7.808-6.389-14.196-14.197-14.196z" fill="#fea53d"/><path d="m312.786 86.872c-7.808 0-14.197 6.388-14.197 14.196v5.277c0 7.808 6.388 14.196 14.197 14.196s14.197-6.388 14.197-14.196v-5.277c0-7.808-6.389-14.196-14.197-14.196z" fill="#ffc242"/><path d="m256 86.872c-7.808 0-14.197 6.388-14.197 14.196v5.277c0 7.808 6.388 14.196 14.197 14.196s14.197-6.388 14.197-14.196v-5.277c0-7.808-6.389-14.196-14.197-14.196z" fill="#ffc242"/><path d="m362.5 284.731h-92.217c-16.473 0-29.827 13.354-29.827 29.827v19.343c0 33.648 15.45 63.935 39.678 83.751 47.193-10.934 82.366-53.235 82.366-103.753z" fill="#2a428b"/><path d="m251.646 263.572h-103.646c-6.6 0-12-5.4-12-12v-40.625c0-6.6 5.4-12 12-12h103.646l-22.229 26.667z" fill="#3f57a0"/><path d="m356.479 263.572h-104.833c-17.772 0-32.312-14.541-32.312-32.312 0-17.772 14.54-32.312 32.312-32.312h104.833l-18.729 26.5z" fill="#5071b7"/><path d="m376 251.572v-40.625c0-6.6-5.4-12-12-12h-7.521c-17.772 0-32.312 14.541-32.312 32.312 0 17.772 14.541 32.312 32.312 32.312h7.521c6.6.001 12-5.399 12-11.999z" fill="#6289cd"/><path d="m453.456 231.26c0-10.401-8.51-18.911-18.911-18.911h-7.656c-10.401 0-18.911 8.51-18.911 18.911 0 10.401 8.51 18.911 18.911 18.911h7.656c10.4 0 18.911-8.51 18.911-18.911z" fill="#3f57a0"/></g></svg>