<svg width="80" height="80" viewBox="0 0 80 80" fill="none" xmlns="http://www.w3.org/2000/svg">
<path d="M73.3334 52.5C71.953 52.5 70.8334 51.3803 70.8334 50V30C70.8334 28.6197 71.953 27.5 73.3334 27.5C74.7137 27.5 75.8334 28.6197 75.8334 30V50C75.8334 51.3803 74.7137 52.5 73.3334 52.5ZM64.7217 56.6667V23.3333C64.7217 21.953 63.602 20.8333 62.2217 20.8333C60.8414 20.8333 59.7217 21.953 59.7217 23.3333V56.6667C59.7217 58.047 60.8414 59.1667 62.2217 59.1667C63.602 59.1667 64.7217 58.047 64.7217 56.6667ZM53.6117 46.6667V33.3333C53.6117 31.953 52.492 30.8333 51.1117 30.8333C49.7314 30.8333 48.6117 31.953 48.6117 33.3333V46.6667C48.6117 48.047 49.7314 49.1667 51.1117 49.1667C52.492 49.1667 53.6117 48.047 53.6117 46.6667ZM42.5 60V20C42.5 18.6197 41.3804 17.5 40 17.5C38.6197 17.5 37.5 18.6197 37.5 20V60C37.5 61.3803 38.6197 62.5 40 62.5C41.3804 62.5 42.5 61.3803 42.5 60ZM31.3884 66.6667V13.3333C31.3884 11.953 30.2687 10.8333 28.8884 10.8333C27.508 10.8333 26.3884 11.953 26.3884 13.3333V66.6667C26.3884 68.047 27.508 69.1667 28.8884 69.1667C30.2687 69.1667 31.3884 68.047 31.3884 66.6667ZM20.2784 53.3333V26.6667C20.2784 25.2863 19.1587 24.1667 17.7784 24.1667C16.398 24.1667 15.2784 25.2863 15.2784 26.6667V53.3333C15.2784 54.7137 16.398 55.8333 17.7784 55.8333C19.1587 55.8333 20.2784 54.7137 20.2784 53.3333ZM9.16669 50V30C9.16669 28.6197 8.04702 27.5 6.66669 27.5C5.28635 27.5 4.16669 28.6197 4.16669 30V50C4.16669 51.3803 5.28635 52.5 6.66669 52.5C8.04702 52.5 9.16669 51.3803 9.16669 50Z" fill="url(#paint0_linear_345_3059)"/>
<defs>
<linearGradient id="paint0_linear_345_3059" x1="16.5667" y1="16.5667" x2="63.4334" y2="63.4333" gradientUnits="userSpaceOnUse">
<stop stop-color="#86F79E"/>
<stop offset="0.39" stop-color="#38BF76"/>
<stop offset="0.695" stop-color="#86F79E"/>
<stop offset="1" stop-color="#21A75F"/>
</linearGradient>
</defs>
</svg>
